<svg xmlns="http://www.w3.org/2000/svg" viewBox="8 10 104 104">
  <defs><clipPath id="c"><circle cx="60" cy="62" r="52"/></clipPath></defs>
  <g clip-path="url(#c)" stroke-linejoin="round">
    <rect width="120" height="120" fill="#7C8BDE"/>
    <path d="M0 88 H120 V120 H0 Z" fill="#C0C8F2"/>
    <polygon points="14,90 106,88 106,93 14,95" fill="#6B4A30"/>
    <polygon points="50,90 48,95 55,95" fill="#F5A623"/>
    <polygon points="70,90 72,95 65,95" fill="#E0941A"/>
    <polygon points="42,48 39,31 53,43" fill="#A5784F"/>
    <polygon points="78,48 81,31 67,43" fill="#8A6140"/>
    <polygon points="40,90 60,90 60,40 42,48" fill="#A5784F"/>
    <polygon points="60,90 80,90 78,48 60,40" fill="#8A6140"/>
    <polygon points="41,62 34,82 44,85" fill="#7A5537"/>
    <polygon points="79,62 86,82 76,85" fill="#6B4A30"/>
    <polygon points="50,88 60,88 60,62 52,66" fill="#EBD6B3"/>
    <polygon points="60,88 70,88 68,66 60,62" fill="#DCC5A0"/>
    <circle cx="52" cy="53" r="7" fill="#FFF6E6"/>
    <circle cx="68" cy="53" r="7" fill="#F4E9D6"/>
    <circle cx="52" cy="53" r="3.2" fill="#2E2A28"/>
    <circle cx="68" cy="53" r="3.2" fill="#2E2A28"/>
    <circle cx="53" cy="52" r="1" fill="#FFFFFF"/>
    <circle cx="69" cy="52" r="1" fill="#FFFFFF"/>
    <polygon points="57,60 63,60 60,66" fill="#F5A623"/>
    <polygon points="60,60 63,60 60,66" fill="#E0941A"/>
  </g>
</svg>
