<svg xmlns="http://www.w3.org/2000/svg" viewBox="8 10 104 104">
  <defs><clipPath id="c"><circle cx="60" cy="62" r="52"/></clipPath></defs>
  <g clip-path="url(#c)" stroke-linejoin="round">
    <rect width="120" height="120" fill="#F2C14E"/>
    <path d="M0 88 H120 V120 H0 Z" fill="#F8E0A2"/>
    <polygon points="74,84 94,90 90,96 72,90" fill="#7A5134"/>
    <polygon points="44,92 60,92 60,58 48,58" fill="#9C6B45"/>
    <polygon points="60,92 76,92 72,58 60,58" fill="#7F5536"/>
    <polygon points="52,90 60,90 60,66 54,66" fill="#E2BE95"/>
    <polygon points="60,90 68,90 66,66 60,66" fill="#D1AA80"/>
    <polygon points="45,46 42,37 51,41" fill="#7F5536"/>
    <polygon points="75,46 78,37 69,41" fill="#6B472E"/>
    <polygon points="42,46 60,35 60,65 45,60" fill="#A97650"/>
    <polygon points="60,35 78,46 75,60 60,65" fill="#8E603F"/>
    <polygon points="51,54 60,52 60,63 55,62" fill="#F0DCC2"/>
    <polygon points="60,52 69,54 65,62 60,63" fill="#E2CAAC"/>
    <polygon points="57.5,53.5 62.5,53.5 60,56.5" fill="#3A2A20"/>
    <circle cx="52" cy="48" r="2" fill="#2A1F18"/>
    <circle cx="68" cy="48" r="2" fill="#2A1F18"/>
    <circle cx="52.6" cy="47.4" r="0.7" fill="#FFFFFF"/>
    <circle cx="68.6" cy="47.4" r="0.7" fill="#FFFFFF"/>
    <polygon points="50,72 55,67 58,74 53,78" fill="#8E603F"/>
    <polygon points="70,72 65,67 62,74 67,78" fill="#7F5536"/>
    <polygon points="54,72 60,67 66,72 60,79" fill="#F59AB0"/>
    <polygon points="60,67 66,72 60,79" fill="#E9829B"/>
  </g>
</svg>
