<svg xmlns="http://www.w3.org/2000/svg" viewBox="0 0 120 120">
  <defs><clipPath id="c"><circle cx="60" cy="60" r="60"/></clipPath></defs>
  <g clip-path="url(#c)">
  <circle cx="60" cy="60" r="60" fill="#CBE9FA"/>
  <g fill="#FFFFFF">
    <circle cx="18" cy="42" r="2.4"/>
    <circle cx="100" cy="32" r="2"/>
    <circle cx="106" cy="56" r="2.6"/>
    <circle cx="26" cy="24" r="1.6"/>
  </g>
  <ellipse cx="60" cy="68" rx="37" ry="35" fill="#3D4B66" stroke="#34344A" stroke-width="3"/>
  <path d="M60 50 Q48 38 36 50 Q28 62 34 78 Q44 96 60 96 Q76 96 86 78 Q92 62 84 50 Q72 38 60 50 Z" fill="#FFFFFF"/>
  <ellipse cx="48" cy="65" rx="4" ry="4.8" fill="#34344A"/>
  <ellipse cx="72" cy="65" rx="4" ry="4.8" fill="#34344A"/>
  <circle cx="49.4" cy="63.3" r="1.5" fill="#FFFFFF"/>
  <circle cx="73.4" cy="63.3" r="1.5" fill="#FFFFFF"/>
  <ellipse cx="40" cy="76" rx="5" ry="3" fill="#FFA3B8"/>
  <ellipse cx="80" cy="76" rx="5" ry="3" fill="#FFA3B8"/>
  <path d="M53.5 73 H66.5 L60 81 Z" fill="#FFB347" stroke="#34344A" stroke-width="2" stroke-linejoin="round"/>
  </g>
</svg>
